# Blender 4.0.2
# www.blender.org
mtllib Desk_Drawer.mtl
o Desk_Drawer
v -0.879391 -0.084116 0.274637
v -0.879391 0.084116 0.274637
v -0.879391 -0.084116 -0.274637
v -0.879391 0.084116 -0.274637
v 0.879391 -0.399391 1.304000
v 0.796567 0.399391 1.181184
v 0.879391 -0.399391 -1.304000
v 0.796567 0.399391 -1.181184
v -0.879391 -0.399391 -1.304000
v -0.879391 -0.399391 1.304000
v -0.796567 0.399391 1.181184
v -0.796567 0.399391 -1.181184
v -0.879391 -0.300531 -0.981226
v -0.879391 -0.300531 0.981226
v -0.879391 0.300531 0.981226
v -0.879391 0.300531 -0.981226
v -0.879391 -0.256865 -0.838656
v -0.879391 -0.256865 0.838656
v -0.879391 0.256865 0.838656
v -0.879391 0.256865 -0.838656
v -0.879391 -0.196748 -0.642377
v -0.879391 -0.196748 0.642377
v -0.879391 0.196748 0.642377
v -0.879391 0.196748 -0.642377
v -0.879391 -0.142455 -0.465113
v -0.879391 -0.142455 0.465113
v -0.879391 0.142455 0.465113
v -0.879391 0.142455 -0.465113
v -0.956328 -0.084116 -0.274637
v -0.956328 -0.084116 0.274637
v -0.956328 0.084116 0.274637
v -0.956328 0.084116 -0.274637
v -0.902587 0.084116 0.240242
v -0.902587 0.084116 -0.240242
v -0.933132 0.084116 0.240242
v -0.933132 0.084116 -0.240242
v -0.879391 0.084116 0.274637
v -0.879391 0.084116 -0.274637
v -0.956328 0.084116 0.274637
v -0.956328 0.084116 -0.274637
v -0.902587 -0.035713 0.240242
v -0.902587 -0.035713 -0.240242
v -0.933132 -0.035713 0.240242
v -0.933132 -0.035713 -0.240242
v -0.879391 0.399391 1.304000
v -0.879391 0.399391 -1.304000
v 0.879391 0.399391 -1.304000
v 0.879391 0.399391 1.304000
v -0.796567 -0.156919 1.181184
v -0.796567 -0.156919 -1.181184
v 0.796567 -0.156919 -1.181184
v 0.796567 -0.156919 1.181184
vn -0.0000 -1.0000 -0.0000
vn -0.0000 -0.0000 -1.0000
vn 1.0000 -0.0000 -0.0000
vn -0.0000 -0.0000 1.0000
vn -1.0000 -0.0000 -0.0000
vn -0.0000 1.0000 -0.0000
vt 0.473674 0.151326
vt 0.473674 0.098674
vt 0.375000 0.250000
vt 0.625000 0.250000
vt 0.625000 0.500000
vt 0.375000 0.500000
vt 0.625000 0.750000
vt 0.375000 0.750000
vt 0.625000 1.000000
vt 0.375000 1.000000
vt 0.125000 0.500000
vt 0.125000 0.750000
vt 0.863227 0.738227
vt 0.636773 0.738227
vt 0.405941 0.030941
vt 0.405941 0.219059
vt 0.375000 0.000000
vt 0.594059 0.030941
vt 0.625000 0.000000
vt 0.594059 0.219059
vt 0.419607 0.044607
vt 0.419607 0.205393
vt 0.580393 0.044607
vt 0.580393 0.205393
vt 0.438423 0.063422
vt 0.438423 0.186578
vt 0.561578 0.063423
vt 0.561577 0.186578
vt 0.455415 0.080415
vt 0.455415 0.169585
vt 0.544585 0.080415
vt 0.544585 0.169585
vt 0.526326 0.098674
vt 0.526326 0.151326
vt 0.526326 0.148029
vt 0.526326 0.148029
vt 0.526326 0.101971
vt 0.863227 0.511773
vt 0.875000 0.500000
vt 0.875000 0.750000
vt 0.636773 0.511773
s 0
f 3/1/1 1/2/1 30/2/1 29/1/1
f 9/3/2 46/4/2 47/5/2 7/6/2
f 7/6/3 47/5/3 48/7/3 5/8/3
f 5/8/4 48/7/4 45/9/4 10/10/4
f 9/11/1 7/6/1 5/8/1 10/12/1
f 11/13/2 6/14/2 52/14/2 49/13/2
f 14/15/5 13/16/5 9/3/5 10/17/5
f 15/18/5 14/15/5 10/17/5 45/19/5
f 16/20/5 15/18/5 45/19/5 46/4/5
f 13/16/5 16/20/5 46/4/5 9/3/5
f 18/21/5 17/22/5 13/16/5 14/15/5
f 19/23/5 18/21/5 14/15/5 15/18/5
f 20/24/5 19/23/5 15/18/5 16/20/5
f 17/22/5 20/24/5 16/20/5 13/16/5
f 22/25/5 21/26/5 17/22/5 18/21/5
f 23/27/5 22/25/5 18/21/5 19/23/5
f 24/28/5 23/27/5 19/23/5 20/24/5
f 21/26/5 24/28/5 20/24/5 17/22/5
f 26/29/5 25/30/5 21/26/5 22/25/5
f 27/31/5 26/29/5 22/25/5 23/27/5
f 28/32/5 27/31/5 23/27/5 24/28/5
f 25/30/5 28/32/5 24/28/5 21/26/5
f 1/2/5 3/1/5 25/30/5 26/29/5
f 2/33/5 1/2/5 26/29/5 27/31/5
f 4/34/5 2/33/5 27/31/5 28/32/5
f 3/1/5 4/34/5 28/32/5 25/30/5
f 30/2/5 31/33/5 32/34/5 29/1/5
f 4/34/2 3/1/2 29/1/2 32/34/2
f 1/2/4 2/33/4 31/33/4 30/2/4
f 4/34/6 32/34/6 40/34/6 38/34/6
f 34/35/4 36/36/4 44/36/4 42/35/4
f 32/34/6 31/33/6 39/33/6 40/34/6
f 31/33/6 2/33/6 37/33/6 39/33/6
f 2/33/6 4/34/6 38/34/6 37/33/6
f 34/35/6 33/37/6 37/33/6 38/34/6
f 35/37/6 36/36/6 40/34/6 39/33/6
f 36/36/6 34/35/6 38/34/6 40/34/6
f 33/37/6 35/37/6 39/33/6 37/33/6
f 41/37/6 42/35/6 44/36/6 43/37/6
f 33/37/5 34/35/5 42/35/5 41/37/5
f 35/37/2 33/37/2 41/37/2 43/37/2
f 36/36/3 35/37/3 43/37/3 44/36/3
f 11/13/6 12/38/6 46/39/6 45/40/6
f 12/38/6 8/41/6 47/5/6 46/39/6
f 8/41/6 6/14/6 48/7/6 47/5/6
f 6/14/6 11/13/6 45/40/6 48/7/6
f 51/41/6 50/38/6 49/13/6 52/14/6
f 8/41/4 12/38/4 50/38/4 51/41/4
f 6/14/5 8/41/5 51/41/5 52/14/5
f 12/38/3 11/13/3 49/13/3 50/38/3
