# Blender 4.0.2
# www.blender.org
mtllib Desk.mtl
o Desk
v 0.980844 3.000000 -2.942533
v 1.000000 0.000000 -3.000000
v 0.980844 3.000000 2.942533
v 1.000000 0.000000 3.000000
v -1.000000 2.807888 -2.615777
v -1.000000 -0.003760 -2.615777
v -1.000000 2.807888 2.615777
v -1.000000 -0.003760 2.615777
v -1.000000 0.000000 -3.000000
v -1.000000 0.000000 3.000000
v -0.980844 3.000000 2.942533
v -0.980844 3.000000 -2.942533
v 0.706551 -0.003760 -2.615777
v 0.706551 -0.003760 2.615777
v 0.706551 2.807888 2.615777
v 0.706551 2.807888 -2.615777
v 1.103469 3.000000 3.310408
v -1.103469 3.000000 3.310408
v 1.103469 3.000000 -3.310408
v -1.103469 3.000000 -3.310408
v 1.208177 3.162328 3.624531
v -1.208177 3.162328 3.624531
v 1.208177 3.162328 -3.624531
v -1.208177 3.162328 -3.624531
v 0.980844 3.162328 2.942533
v -0.980844 3.162328 2.942533
v 0.980844 3.162328 -2.942533
v -0.980844 3.162328 -2.942533
vn -0.0000 1.0000 -0.0000
vn -0.0000 -0.1029 0.9947
vn -0.0000 -1.0000 -0.0000
vn 0.0069 -1.0000 -0.0000
vn 0.9994 -0.0345 -0.0000
vn -0.0000 -0.1029 -0.9947
vn -0.9956 -0.0127 -0.0932
vn -0.9956 -0.0127 0.0932
vn -0.8804 -0.4742 -0.0000
vn -1.0000 -0.0000 -0.0000
vn -0.0000 -0.0000 -1.0000
vn -0.0000 -0.0000 1.0000
vn -0.0000 -0.8884 -0.4591
vn -0.9487 -0.0000 -0.3162
vn -0.9487 -0.0000 0.3162
vn -0.0000 -0.8884 0.4591
vn 0.8403 -0.5421 -0.0000
vt 0.638891 0.513891
vt 0.861109 0.513891
vt 0.861109 0.736109
vt 0.638891 0.736109
vt 0.375000 0.750000
vt 0.625000 0.750000
vt 0.625000 1.000000
vt 0.375000 1.000000
vt 0.608991 0.016009
vt 0.608991 0.233991
vt 0.375000 0.500000
vt 0.391009 0.016009
vt 0.391009 0.233991
vt 0.375000 0.250000
vt 0.625000 0.500000
vt 0.625000 0.250000
vt 0.375000 0.000000
vt 0.625000 0.000000
vt 0.875000 0.750000
vt 0.875000 0.500000
s 1
usemtl Material
f 1/1/1 12/2/1 11/3/1 3/4/1
f 4/5/2 17/6/2 18/7/2 10/8/2
f 7/9/3 5/10/3 16/10/3 15/9/3
f 2/11/4 4/5/4 10/8/4 8/12/4 14/12/4 13/13/4 6/13/4 9/14/4
f 2/11/5 19/15/5 17/6/5 4/5/5
f 9/14/6 20/16/6 19/15/6 2/11/6
f 7/9/7 8/12/7 10/17/7 18/18/7
f 6/13/8 5/10/8 20/16/8 9/14/8
f 5/10/9 7/9/9 18/18/9 20/16/9
f 14/12/10 15/9/10 16/10/10 13/13/10
f 8/12/11 7/9/11 15/9/11 14/12/11
f 5/10/12 6/13/12 13/13/12 16/10/12
f 19/15/13 20/16/13 24/16/13 23/15/13
f 11/3/14 18/19/14 22/19/14 26/3/14
f 11/3/1 12/2/1 20/20/1 18/19/1
f 20/20/15 12/2/15 28/2/15 24/20/15
f 25/4/1 26/3/1 22/19/1 21/6/1
f 27/1/1 25/4/1 21/6/1 23/15/1
f 28/2/1 27/1/1 23/15/1 24/20/1
f 12/2/12 1/1/12 27/1/12 28/2/12
f 1/1/10 3/4/10 25/4/10 27/1/10
f 18/7/16 17/6/16 21/6/16 22/7/16
f 17/6/17 19/15/17 23/15/17 21/6/17
f 3/4/11 11/3/11 26/3/11 25/4/11
